<mxfile host="Electron" agent="Mozilla/5.0 (Windows NT 10.0; Win64; x64) AppleWebKit/537.36 (KHTML, like Gecko) draw.io/26.0.16 Chrome/132.0.6834.196 Electron/34.2.0 Safari/537.36" version="26.0.16">
  <diagram name="Page-1" id="49eF8uJLG_pSf2Ay2DIn">
    <mxGraphModel dx="2271" dy="1422" grid="1" gridSize="10" guides="1" tooltips="1" connect="1" arrows="1" fold="1" page="1" pageScale="1" pageWidth="827" pageHeight="1169" math="0" shadow="0">
      <root>
        <mxCell id="0" />
        <mxCell id="1" parent="0" />
        <mxCell id="8vj2ocZiXbvmfxnJufnY-4" value="" style="swimlane;startSize=0;strokeColor=none;fillColor=#FFFFFF;" vertex="1" parent="1">
          <mxGeometry x="20" y="15" width="774" height="1135" as="geometry" />
        </mxCell>
        <mxCell id="8vj2ocZiXbvmfxnJufnY-3" value="" style="group" vertex="1" connectable="0" parent="8vj2ocZiXbvmfxnJufnY-4">
          <mxGeometry x="14" y="14" width="760" height="1110" as="geometry" />
        </mxCell>
        <mxCell id="3AzIlzbDDk-I7jiZGV_C-35" value="System" style="swimlane;whiteSpace=wrap;html=1;" parent="8vj2ocZiXbvmfxnJufnY-3" vertex="1">
          <mxGeometry x="280" y="840" width="200" height="270" as="geometry" />
        </mxCell>
        <mxCell id="3AzIlzbDDk-I7jiZGV_C-36" value="Get Dashboard" style="ellipse;whiteSpace=wrap;html=1;" parent="3AzIlzbDDk-I7jiZGV_C-35" vertex="1">
          <mxGeometry x="49" y="40" width="102" height="30" as="geometry" />
        </mxCell>
        <mxCell id="3AzIlzbDDk-I7jiZGV_C-37" value="Get Item Summary" style="ellipse;whiteSpace=wrap;html=1;" parent="3AzIlzbDDk-I7jiZGV_C-35" vertex="1">
          <mxGeometry x="48" y="80" width="122" height="30" as="geometry" />
        </mxCell>
        <mxCell id="3AzIlzbDDk-I7jiZGV_C-38" value="Get History&amp;nbsp;" style="ellipse;whiteSpace=wrap;html=1;" parent="3AzIlzbDDk-I7jiZGV_C-35" vertex="1">
          <mxGeometry x="58" y="125" width="84" height="30" as="geometry" />
        </mxCell>
        <mxCell id="3AzIlzbDDk-I7jiZGV_C-39" value="Share Item QRCode" style="ellipse;whiteSpace=wrap;html=1;" parent="3AzIlzbDDk-I7jiZGV_C-35" vertex="1">
          <mxGeometry x="33" y="170" width="132" height="30" as="geometry" />
        </mxCell>
        <mxCell id="3AzIlzbDDk-I7jiZGV_C-41" value="Share List QRCode" style="ellipse;whiteSpace=wrap;html=1;" parent="3AzIlzbDDk-I7jiZGV_C-35" vertex="1">
          <mxGeometry x="37.5" y="220" width="123" height="30" as="geometry" />
        </mxCell>
        <mxCell id="3AzIlzbDDk-I7jiZGV_C-42" style="rounded=0;orthogonalLoop=1;jettySize=auto;html=1;exitX=0.5;exitY=0.5;exitDx=0;exitDy=0;exitPerimeter=0;entryX=0;entryY=0.5;entryDx=0;entryDy=0;endArrow=none;startFill=0;" parent="8vj2ocZiXbvmfxnJufnY-3" source="3AzIlzbDDk-I7jiZGV_C-48" target="3AzIlzbDDk-I7jiZGV_C-36" edge="1">
          <mxGeometry relative="1" as="geometry" />
        </mxCell>
        <mxCell id="3AzIlzbDDk-I7jiZGV_C-43" style="rounded=0;orthogonalLoop=1;jettySize=auto;html=1;exitX=0.5;exitY=0.5;exitDx=0;exitDy=0;exitPerimeter=0;entryX=0;entryY=0.5;entryDx=0;entryDy=0;endArrow=none;startFill=0;" parent="8vj2ocZiXbvmfxnJufnY-3" source="3AzIlzbDDk-I7jiZGV_C-48" target="3AzIlzbDDk-I7jiZGV_C-37" edge="1">
          <mxGeometry relative="1" as="geometry" />
        </mxCell>
        <mxCell id="3AzIlzbDDk-I7jiZGV_C-44" style="edgeStyle=none;shape=connector;rounded=0;orthogonalLoop=1;jettySize=auto;html=1;exitX=0.5;exitY=0.5;exitDx=0;exitDy=0;exitPerimeter=0;entryX=0;entryY=0.5;entryDx=0;entryDy=0;strokeColor=default;align=center;verticalAlign=middle;fontFamily=Helvetica;fontSize=11;fontColor=default;labelBackgroundColor=default;startFill=0;endArrow=none;" parent="8vj2ocZiXbvmfxnJufnY-3" source="3AzIlzbDDk-I7jiZGV_C-48" target="3AzIlzbDDk-I7jiZGV_C-38" edge="1">
          <mxGeometry relative="1" as="geometry" />
        </mxCell>
        <mxCell id="3AzIlzbDDk-I7jiZGV_C-45" style="edgeStyle=none;shape=connector;rounded=0;orthogonalLoop=1;jettySize=auto;html=1;exitX=0.5;exitY=0.5;exitDx=0;exitDy=0;exitPerimeter=0;entryX=0;entryY=0.5;entryDx=0;entryDy=0;strokeColor=default;align=center;verticalAlign=middle;fontFamily=Helvetica;fontSize=11;fontColor=default;labelBackgroundColor=default;startFill=0;endArrow=none;" parent="8vj2ocZiXbvmfxnJufnY-3" source="3AzIlzbDDk-I7jiZGV_C-48" target="3AzIlzbDDk-I7jiZGV_C-39" edge="1">
          <mxGeometry relative="1" as="geometry" />
        </mxCell>
        <mxCell id="3AzIlzbDDk-I7jiZGV_C-47" style="edgeStyle=none;shape=connector;rounded=0;orthogonalLoop=1;jettySize=auto;html=1;exitX=0.5;exitY=0.5;exitDx=0;exitDy=0;exitPerimeter=0;entryX=0;entryY=0.5;entryDx=0;entryDy=0;strokeColor=default;align=center;verticalAlign=middle;fontFamily=Helvetica;fontSize=11;fontColor=default;labelBackgroundColor=default;startFill=0;endArrow=none;" parent="8vj2ocZiXbvmfxnJufnY-3" source="3AzIlzbDDk-I7jiZGV_C-48" target="3AzIlzbDDk-I7jiZGV_C-41" edge="1">
          <mxGeometry relative="1" as="geometry" />
        </mxCell>
        <mxCell id="3AzIlzbDDk-I7jiZGV_C-1" value="System" style="swimlane;whiteSpace=wrap;html=1;" parent="8vj2ocZiXbvmfxnJufnY-3" vertex="1">
          <mxGeometry x="280" y="80" width="200" height="240" as="geometry" />
        </mxCell>
        <mxCell id="3AzIlzbDDk-I7jiZGV_C-4" value="Add List" style="ellipse;whiteSpace=wrap;html=1;" parent="3AzIlzbDDk-I7jiZGV_C-1" vertex="1">
          <mxGeometry x="58" y="40" width="84" height="30" as="geometry" />
        </mxCell>
        <mxCell id="3AzIlzbDDk-I7jiZGV_C-8" value="Edit List" style="ellipse;whiteSpace=wrap;html=1;" parent="3AzIlzbDDk-I7jiZGV_C-1" vertex="1">
          <mxGeometry x="58" y="75" width="84" height="30" as="geometry" />
        </mxCell>
        <mxCell id="3AzIlzbDDk-I7jiZGV_C-9" value="Delete List" style="ellipse;whiteSpace=wrap;html=1;" parent="3AzIlzbDDk-I7jiZGV_C-1" vertex="1">
          <mxGeometry x="57" y="113" width="84" height="30" as="geometry" />
        </mxCell>
        <mxCell id="3AzIlzbDDk-I7jiZGV_C-12" value="Scan List" style="ellipse;whiteSpace=wrap;html=1;" parent="3AzIlzbDDk-I7jiZGV_C-1" vertex="1">
          <mxGeometry x="58" y="150" width="84" height="30" as="geometry" />
        </mxCell>
        <mxCell id="3AzIlzbDDk-I7jiZGV_C-14" value="Display List" style="ellipse;whiteSpace=wrap;html=1;" parent="3AzIlzbDDk-I7jiZGV_C-1" vertex="1">
          <mxGeometry x="58" y="190" width="84" height="30" as="geometry" />
        </mxCell>
        <mxCell id="3AzIlzbDDk-I7jiZGV_C-7" style="rounded=0;orthogonalLoop=1;jettySize=auto;html=1;exitX=0.5;exitY=0.5;exitDx=0;exitDy=0;exitPerimeter=0;entryX=0;entryY=0.5;entryDx=0;entryDy=0;endArrow=none;startFill=0;" parent="8vj2ocZiXbvmfxnJufnY-3" source="3AzIlzbDDk-I7jiZGV_C-2" target="3AzIlzbDDk-I7jiZGV_C-4" edge="1">
          <mxGeometry relative="1" as="geometry" />
        </mxCell>
        <mxCell id="3AzIlzbDDk-I7jiZGV_C-10" style="rounded=0;orthogonalLoop=1;jettySize=auto;html=1;exitX=0.5;exitY=0.5;exitDx=0;exitDy=0;exitPerimeter=0;entryX=0;entryY=0.5;entryDx=0;entryDy=0;endArrow=none;startFill=0;" parent="8vj2ocZiXbvmfxnJufnY-3" source="3AzIlzbDDk-I7jiZGV_C-2" target="3AzIlzbDDk-I7jiZGV_C-8" edge="1">
          <mxGeometry relative="1" as="geometry" />
        </mxCell>
        <mxCell id="3AzIlzbDDk-I7jiZGV_C-11" style="edgeStyle=none;shape=connector;rounded=0;orthogonalLoop=1;jettySize=auto;html=1;exitX=0.5;exitY=0.5;exitDx=0;exitDy=0;exitPerimeter=0;entryX=0;entryY=0.5;entryDx=0;entryDy=0;strokeColor=default;align=center;verticalAlign=middle;fontFamily=Helvetica;fontSize=11;fontColor=default;labelBackgroundColor=default;startFill=0;endArrow=none;" parent="8vj2ocZiXbvmfxnJufnY-3" source="3AzIlzbDDk-I7jiZGV_C-2" target="3AzIlzbDDk-I7jiZGV_C-9" edge="1">
          <mxGeometry relative="1" as="geometry" />
        </mxCell>
        <mxCell id="3AzIlzbDDk-I7jiZGV_C-13" style="edgeStyle=none;shape=connector;rounded=0;orthogonalLoop=1;jettySize=auto;html=1;exitX=0.5;exitY=0.5;exitDx=0;exitDy=0;exitPerimeter=0;entryX=0;entryY=0.5;entryDx=0;entryDy=0;strokeColor=default;align=center;verticalAlign=middle;fontFamily=Helvetica;fontSize=11;fontColor=default;labelBackgroundColor=default;startFill=0;endArrow=none;" parent="8vj2ocZiXbvmfxnJufnY-3" source="3AzIlzbDDk-I7jiZGV_C-2" target="3AzIlzbDDk-I7jiZGV_C-12" edge="1">
          <mxGeometry relative="1" as="geometry" />
        </mxCell>
        <mxCell id="3AzIlzbDDk-I7jiZGV_C-15" style="edgeStyle=none;shape=connector;rounded=0;orthogonalLoop=1;jettySize=auto;html=1;exitX=0.5;exitY=0.5;exitDx=0;exitDy=0;exitPerimeter=0;entryX=0;entryY=0.5;entryDx=0;entryDy=0;strokeColor=default;align=center;verticalAlign=middle;fontFamily=Helvetica;fontSize=11;fontColor=default;labelBackgroundColor=default;startFill=0;endArrow=none;" parent="8vj2ocZiXbvmfxnJufnY-3" source="3AzIlzbDDk-I7jiZGV_C-2" target="3AzIlzbDDk-I7jiZGV_C-14" edge="1">
          <mxGeometry relative="1" as="geometry" />
        </mxCell>
        <mxCell id="3AzIlzbDDk-I7jiZGV_C-2" value="User" style="shape=umlActor;verticalLabelPosition=bottom;verticalAlign=top;html=1;outlineConnect=0;" parent="8vj2ocZiXbvmfxnJufnY-3" vertex="1">
          <mxGeometry x="126" y="130" width="30" height="60" as="geometry" />
        </mxCell>
        <mxCell id="3AzIlzbDDk-I7jiZGV_C-5" value="&lt;font style=&quot;font-size: 30px;&quot; face=&quot;Verdana&quot;&gt;&lt;b&gt;List use cases&lt;/b&gt;&lt;/font&gt;" style="text;html=1;align=center;verticalAlign=middle;whiteSpace=wrap;rounded=0;" parent="8vj2ocZiXbvmfxnJufnY-3" vertex="1">
          <mxGeometry x="247" width="266" height="30" as="geometry" />
        </mxCell>
        <mxCell id="3AzIlzbDDk-I7jiZGV_C-6" value="" style="endArrow=none;html=1;rounded=0;entryX=0;entryY=1;entryDx=0;entryDy=0;exitX=1;exitY=1;exitDx=0;exitDy=0;strokeWidth=2;" parent="8vj2ocZiXbvmfxnJufnY-3" source="3AzIlzbDDk-I7jiZGV_C-5" target="3AzIlzbDDk-I7jiZGV_C-5" edge="1">
          <mxGeometry width="50" height="50" relative="1" as="geometry">
            <mxPoint x="116" y="120" as="sourcePoint" />
            <mxPoint x="166" y="70" as="targetPoint" />
          </mxGeometry>
        </mxCell>
        <mxCell id="3AzIlzbDDk-I7jiZGV_C-16" value="" style="endArrow=none;dashed=1;html=1;rounded=0;strokeColor=default;align=center;verticalAlign=middle;fontFamily=Helvetica;fontSize=11;fontColor=default;labelBackgroundColor=default;strokeWidth=2;" parent="8vj2ocZiXbvmfxnJufnY-3" edge="1">
          <mxGeometry width="50" height="50" relative="1" as="geometry">
            <mxPoint y="370" as="sourcePoint" />
            <mxPoint x="760" y="370" as="targetPoint" />
          </mxGeometry>
        </mxCell>
        <mxCell id="3AzIlzbDDk-I7jiZGV_C-17" value="&lt;font style=&quot;font-size: 30px;&quot; face=&quot;Verdana&quot;&gt;&lt;b&gt;Item use cases&lt;/b&gt;&lt;/font&gt;" style="text;html=1;align=center;verticalAlign=middle;whiteSpace=wrap;rounded=0;" parent="8vj2ocZiXbvmfxnJufnY-3" vertex="1">
          <mxGeometry x="247" y="390" width="266" height="30" as="geometry" />
        </mxCell>
        <mxCell id="3AzIlzbDDk-I7jiZGV_C-18" value="" style="endArrow=none;html=1;rounded=0;entryX=0;entryY=1;entryDx=0;entryDy=0;exitX=1;exitY=1;exitDx=0;exitDy=0;strokeWidth=2;" parent="8vj2ocZiXbvmfxnJufnY-3" source="3AzIlzbDDk-I7jiZGV_C-17" target="3AzIlzbDDk-I7jiZGV_C-17" edge="1">
          <mxGeometry width="50" height="50" relative="1" as="geometry">
            <mxPoint x="116" y="510" as="sourcePoint" />
            <mxPoint x="166" y="460" as="targetPoint" />
          </mxGeometry>
        </mxCell>
        <mxCell id="3AzIlzbDDk-I7jiZGV_C-20" value="System" style="swimlane;whiteSpace=wrap;html=1;" parent="8vj2ocZiXbvmfxnJufnY-3" vertex="1">
          <mxGeometry x="280" y="450" width="200" height="270" as="geometry" />
        </mxCell>
        <mxCell id="3AzIlzbDDk-I7jiZGV_C-21" value="Add Item" style="ellipse;whiteSpace=wrap;html=1;" parent="3AzIlzbDDk-I7jiZGV_C-20" vertex="1">
          <mxGeometry x="58" y="40" width="84" height="30" as="geometry" />
        </mxCell>
        <mxCell id="3AzIlzbDDk-I7jiZGV_C-22" value="Edit Item" style="ellipse;whiteSpace=wrap;html=1;" parent="3AzIlzbDDk-I7jiZGV_C-20" vertex="1">
          <mxGeometry x="58" y="75" width="84" height="30" as="geometry" />
        </mxCell>
        <mxCell id="3AzIlzbDDk-I7jiZGV_C-23" value="Delete Item" style="ellipse;whiteSpace=wrap;html=1;" parent="3AzIlzbDDk-I7jiZGV_C-20" vertex="1">
          <mxGeometry x="57" y="113" width="84" height="30" as="geometry" />
        </mxCell>
        <mxCell id="3AzIlzbDDk-I7jiZGV_C-24" value="Scan Item" style="ellipse;whiteSpace=wrap;html=1;" parent="3AzIlzbDDk-I7jiZGV_C-20" vertex="1">
          <mxGeometry x="58" y="150" width="84" height="30" as="geometry" />
        </mxCell>
        <mxCell id="3AzIlzbDDk-I7jiZGV_C-25" value="Display Item" style="ellipse;whiteSpace=wrap;html=1;" parent="3AzIlzbDDk-I7jiZGV_C-20" vertex="1">
          <mxGeometry x="58" y="190" width="84" height="30" as="geometry" />
        </mxCell>
        <mxCell id="3AzIlzbDDk-I7jiZGV_C-26" value="Return Deleted Item" style="ellipse;whiteSpace=wrap;html=1;" parent="3AzIlzbDDk-I7jiZGV_C-20" vertex="1">
          <mxGeometry x="38.5" y="224" width="123" height="30" as="geometry" />
        </mxCell>
        <mxCell id="3AzIlzbDDk-I7jiZGV_C-32" value="User" style="shape=umlActor;verticalLabelPosition=bottom;verticalAlign=top;html=1;outlineConnect=0;" parent="8vj2ocZiXbvmfxnJufnY-3" vertex="1">
          <mxGeometry x="126" y="500" width="30" height="60" as="geometry" />
        </mxCell>
        <mxCell id="3AzIlzbDDk-I7jiZGV_C-34" value="" style="endArrow=none;dashed=1;html=1;rounded=0;strokeColor=default;align=center;verticalAlign=middle;fontFamily=Helvetica;fontSize=11;fontColor=default;labelBackgroundColor=default;strokeWidth=2;" parent="8vj2ocZiXbvmfxnJufnY-3" edge="1">
          <mxGeometry width="50" height="50" relative="1" as="geometry">
            <mxPoint y="770" as="sourcePoint" />
            <mxPoint x="760" y="770" as="targetPoint" />
          </mxGeometry>
        </mxCell>
        <mxCell id="3AzIlzbDDk-I7jiZGV_C-48" value="User" style="shape=umlActor;verticalLabelPosition=bottom;verticalAlign=top;html=1;outlineConnect=0;" parent="8vj2ocZiXbvmfxnJufnY-3" vertex="1">
          <mxGeometry x="126" y="890" width="30" height="60" as="geometry" />
        </mxCell>
        <mxCell id="3AzIlzbDDk-I7jiZGV_C-49" value="&lt;font style=&quot;font-size: 30px;&quot; face=&quot;Verdana&quot;&gt;&lt;b&gt;Features use cases&lt;/b&gt;&lt;/font&gt;" style="text;html=1;align=center;verticalAlign=middle;whiteSpace=wrap;rounded=0;" parent="8vj2ocZiXbvmfxnJufnY-3" vertex="1">
          <mxGeometry x="205" y="783" width="349" height="30" as="geometry" />
        </mxCell>
        <mxCell id="3AzIlzbDDk-I7jiZGV_C-27" style="rounded=0;orthogonalLoop=1;jettySize=auto;html=1;exitX=0.5;exitY=0.5;exitDx=0;exitDy=0;exitPerimeter=0;entryX=0;entryY=0.5;entryDx=0;entryDy=0;endArrow=none;startFill=0;" parent="8vj2ocZiXbvmfxnJufnY-3" source="3AzIlzbDDk-I7jiZGV_C-32" target="3AzIlzbDDk-I7jiZGV_C-21" edge="1">
          <mxGeometry relative="1" as="geometry" />
        </mxCell>
        <mxCell id="3AzIlzbDDk-I7jiZGV_C-28" style="rounded=0;orthogonalLoop=1;jettySize=auto;html=1;exitX=0.5;exitY=0.5;exitDx=0;exitDy=0;exitPerimeter=0;entryX=0;entryY=0.5;entryDx=0;entryDy=0;endArrow=none;startFill=0;" parent="8vj2ocZiXbvmfxnJufnY-3" source="3AzIlzbDDk-I7jiZGV_C-32" target="3AzIlzbDDk-I7jiZGV_C-22" edge="1">
          <mxGeometry relative="1" as="geometry" />
        </mxCell>
        <mxCell id="3AzIlzbDDk-I7jiZGV_C-29" style="edgeStyle=none;shape=connector;rounded=0;orthogonalLoop=1;jettySize=auto;html=1;exitX=0.5;exitY=0.5;exitDx=0;exitDy=0;exitPerimeter=0;entryX=0;entryY=0.5;entryDx=0;entryDy=0;strokeColor=default;align=center;verticalAlign=middle;fontFamily=Helvetica;fontSize=11;fontColor=default;labelBackgroundColor=default;startFill=0;endArrow=none;" parent="8vj2ocZiXbvmfxnJufnY-3" source="3AzIlzbDDk-I7jiZGV_C-32" target="3AzIlzbDDk-I7jiZGV_C-23" edge="1">
          <mxGeometry relative="1" as="geometry" />
        </mxCell>
        <mxCell id="3AzIlzbDDk-I7jiZGV_C-30" style="edgeStyle=none;shape=connector;rounded=0;orthogonalLoop=1;jettySize=auto;html=1;exitX=0.5;exitY=0.5;exitDx=0;exitDy=0;exitPerimeter=0;entryX=0;entryY=0.5;entryDx=0;entryDy=0;strokeColor=default;align=center;verticalAlign=middle;fontFamily=Helvetica;fontSize=11;fontColor=default;labelBackgroundColor=default;startFill=0;endArrow=none;" parent="8vj2ocZiXbvmfxnJufnY-3" source="3AzIlzbDDk-I7jiZGV_C-32" target="3AzIlzbDDk-I7jiZGV_C-24" edge="1">
          <mxGeometry relative="1" as="geometry" />
        </mxCell>
        <mxCell id="3AzIlzbDDk-I7jiZGV_C-31" style="edgeStyle=none;shape=connector;rounded=0;orthogonalLoop=1;jettySize=auto;html=1;exitX=0.5;exitY=0.5;exitDx=0;exitDy=0;exitPerimeter=0;entryX=0;entryY=0.5;entryDx=0;entryDy=0;strokeColor=default;align=center;verticalAlign=middle;fontFamily=Helvetica;fontSize=11;fontColor=default;labelBackgroundColor=default;startFill=0;endArrow=none;" parent="8vj2ocZiXbvmfxnJufnY-3" source="3AzIlzbDDk-I7jiZGV_C-32" target="3AzIlzbDDk-I7jiZGV_C-25" edge="1">
          <mxGeometry relative="1" as="geometry" />
        </mxCell>
        <mxCell id="3AzIlzbDDk-I7jiZGV_C-33" style="edgeStyle=none;shape=connector;rounded=0;orthogonalLoop=1;jettySize=auto;html=1;exitX=0.5;exitY=0.5;exitDx=0;exitDy=0;exitPerimeter=0;entryX=0;entryY=0.5;entryDx=0;entryDy=0;strokeColor=default;align=center;verticalAlign=middle;fontFamily=Helvetica;fontSize=11;fontColor=default;labelBackgroundColor=default;startFill=0;endArrow=none;" parent="8vj2ocZiXbvmfxnJufnY-3" source="3AzIlzbDDk-I7jiZGV_C-32" target="3AzIlzbDDk-I7jiZGV_C-26" edge="1">
          <mxGeometry relative="1" as="geometry" />
        </mxCell>
        <mxCell id="8vj2ocZiXbvmfxnJufnY-2" value="" style="endArrow=none;html=1;rounded=0;exitX=0;exitY=1;exitDx=0;exitDy=0;entryX=1;entryY=1;entryDx=0;entryDy=0;strokeWidth=2;" edge="1" parent="8vj2ocZiXbvmfxnJufnY-3" source="3AzIlzbDDk-I7jiZGV_C-49" target="3AzIlzbDDk-I7jiZGV_C-49">
          <mxGeometry width="50" height="50" relative="1" as="geometry">
            <mxPoint x="186" y="890" as="sourcePoint" />
            <mxPoint x="236" y="840" as="targetPoint" />
          </mxGeometry>
        </mxCell>
      </root>
    </mxGraphModel>
  </diagram>
</mxfile>
